<?xml version="1.0" encoding="UTF-8" standalone="no"?>
<svg
   xmlns:dc="http://purl.org/dc/elements/1.1/"
   xmlns:cc="http://creativecommons.org/ns#"
   xmlns:rdf="http://www.w3.org/1999/02/22-rdf-syntax-ns#"
   xmlns:svg="http://www.w3.org/2000/svg"
   xmlns="http://www.w3.org/2000/svg"
   viewBox="0 0 3304.8267 1696.5732"
   height="1696.5732"
   width="3304.8267"
   xml:space="preserve"
   id="svg2"
   version="1.1"><metadata
     id="metadata8"><rdf:RDF><cc:Work
         rdf:about=""><dc:format>image/svg+xml</dc:format><dc:type
           rdf:resource="http://purl.org/dc/dcmitype/StillImage" /></cc:Work></rdf:RDF></metadata><defs
     id="defs6" /><g
     transform="matrix(1.3333333,0,0,-1.3333333,0,1696.5733)"
     id="g10"><g
       transform="scale(0.168984)"
       id="g12"><path
         id="path14"
         style="fill:#3773c2;fill-opacity:1;fill-rule:nonzero;stroke:none"
         d="m 3590.8,7220.15 c 52.21,103.53 125.3,194.72 202.51,280.6 62.94,-159.42 120.6,-320.89 187.51,-478.7 26.04,-67.35 38.39,-145.9 6.91,-213.69 -38.82,-90.59 -116.91,-159.87 -207.66,-196.34 34.13,70.45 72.36,145.6 64.42,226.34 -13.53,92.06 -53.83,177.37 -94.57,260.16 18.54,-90.89 42.65,-181.77 41.33,-275.3 -2.79,-72.66 -28.39,-142.81 -65.6,-204.87 -87.5,101.62 -165.29,218.69 -190.59,352.51 -13.24,86.48 18.24,172.66 55.74,249.29 v 0" /><path
         id="path16"
         style="fill:#3773c2;fill-opacity:1;fill-rule:nonzero;stroke:none"
         d="m 4420.55,6858.66 c 243.69,181.47 542.54,268.25 836.38,328.99 -74.42,-282.67 -152.66,-564.45 -226.34,-847.4 -28.53,-156.78 -80.45,-322.53 -206.48,-428.71 -171.63,-128.83 -400.62,-174.86 -609.61,-127.36 112.95,58.39 225.47,123.69 312.82,217.8 48.09,50.6 74.56,116.48 99.57,180.45 50.74,136.78 79.12,280.76 100.15,424.89 -69.27,-175.31 -142.22,-351.94 -253.69,-505.18 -91.92,-107.51 -207.22,-198.4 -340.02,-249.72 -30.6,246.04 -21.33,504.01 71.91,736.37 38.83,111.33 123.55,199.27 215.31,269.87 v 0" /><path
         id="path18"
         style="fill:#3773c2;fill-opacity:1;fill-rule:nonzero;stroke:none"
         d="m 2397.79,6984.39 c 351.48,-120.59 700.18,-271.04 991.82,-505.75 163.98,-136.19 321.34,-306.2 364.14,-521.95 88.09,-329.43 56.18,-678.72 -21.18,-1006.82 -157.8,80.15 -284.58,209.13 -391.5,347.81 -47.5,60.45 -78.67,131.33 -110.44,200.6 -85.3,194.27 -146.92,398.11 -196.63,604.01 5.74,-218.98 23.68,-439.3 80.15,-651.66 22.21,-78.38 46.91,-158.54 96.78,-224.43 106.18,-145 249.12,-258.24 398.54,-356.19 -232.22,-22.35 -470.46,35.89 -666.36,162.36 -78.24,52.06 -155.89,109.27 -208.54,188.83 -111.92,163.39 -148.54,364.44 -159.86,558.71 -57.8,401.64 -118.1,803 -176.92,1204.48 v 0" /><path
         id="path20"
         style="fill:#3773c2;fill-opacity:1;fill-rule:nonzero;stroke:none"
         d="m 1385.37,6832.48 c 172.08,-58.83 341.64,-130.75 492.83,-232.81 108.24,-76.03 213.24,-168.1 267.22,-291.63 73.38,-207.96 57.36,-435.62 7.94,-647.1 -100.45,53.97 -183.24,137.06 -246.34,231.33 -74.72,132.52 -115.74,280.46 -156.33,426.06 8.09,-151.48 17.35,-307.22 75.15,-449.15 55.15,-109.27 157.51,-184.27 255.46,-252.95 -169.28,-16.47 -344.44,42.65 -467.39,159.86 -95.01,98.39 -118.38,240.31 -128.53,371.2 -31.92,228.54 -66.92,456.8 -100.01,685.19 v 0" /><path
         id="path22"
         style="fill:#3773c2;fill-opacity:1;fill-rule:nonzero;stroke:none"
         d="m 5683.13,6739.23 c 134.27,21.33 270.91,2.21 403.12,-24.26 -88.83,-114.12 -179.58,-226.77 -267.96,-341.05 -48.4,-68.68 -102.52,-142.36 -186.19,-168.83 -106.48,-29.56 -221.34,4.12 -307.37,70.15 79.55,8.38 167.95,12.5 232.21,66.62 68.24,59.41 119.86,134.86 168.4,210.45 -62.36,-59.7 -124.28,-120.88 -197.22,-167.95 -66.62,-42.35 -146.48,-58.53 -224.57,-58.97 39.56,121.04 97.79,239.57 190.16,329.28 50.15,50.6 120.89,72.65 189.42,84.56 v 0" /><path
         id="path24"
         style="fill:#3773c2;fill-opacity:1;fill-rule:nonzero;stroke:none"
         d="m 5090.59,5703.74 c 350.46,161.76 724.9,264.86 1102.29,341.48 -141.79,-530.18 -286.06,-1059.61 -426.81,-1589.93 -49.41,-290.91 -151.92,-595.93 -384.58,-791.83 -320.46,-237.66 -747.4,-325.6 -1135.81,-232.94 216.48,103.52 425.62,232.36 590.34,408.99 73.23,75.88 116.18,173.98 156.92,269.72 111.03,277.37 171.19,572.24 212.36,867.25 -100.74,-275.01 -219.27,-544.74 -370.31,-796.21 -48.24,-77.07 -95.16,-156.49 -160.16,-221.04 -165.6,-169.14 -356.78,-321.79 -582.24,-401.8 -51.91,454.44 -40.73,930.94 133.1,1360.08 43.53,142.36 135.3,263.98 238.69,368.7 178.68,178.98 398.84,310.31 626.21,417.53 v 0" /><path
         id="path26"
         style="fill:#3773c2;fill-opacity:1;fill-rule:nonzero;stroke:none"
         d="m 1611.12,5131.5 c 319.87,-64.57 636.51,-149.12 939.61,-270.91 252.82,-103.24 498.71,-232.21 706.67,-411.2 138.53,-121.76 266.19,-267.95 321.78,-447.37 173.24,-428.71 184.57,-904.62 132.21,-1358.47 -246.48,89.27 -454.88,260.61 -628.42,453.41 -210.89,289.43 -353.7,621.8 -481.2,954.62 17.64,-153.98 48.39,-306.35 83.83,-457.09 46.17,-185.59 101.91,-370.75 191.62,-540.47 51.04,-100.44 135.6,-177.81 219.73,-250.31 140,-116.33 297.66,-209.58 462.09,-286.92 -295.17,-70.3 -611.95,-36.93 -888.3,87.2 -55.29,23.97 -107.21,54.85 -160.01,83.98 -81.47,47.06 -147.95,114.12 -211.19,182.8 -149.71,200.89 -226.78,444.88 -266.48,689.61 -139.28,524 -281.49,1047.41 -421.94,1571.12 v 0" /><path
         id="path28"
         style="fill:#3773c2;fill-opacity:1;fill-rule:nonzero;stroke:none"
         d="m 734.891,4589.4 c 176.476,34.27 372.819,63.53 539.879,-20.44 127.08,-83.38 193.99,-229.86 243.4,-368.55 -82.95,-0.3 -167.95,18.53 -237.07,66.04 -67.5,47.21 -127.21,104.41 -186.18,161.48 50.74,-77.95 103.38,-157.07 175.89,-216.78 64.27,-48.98 148.39,-53.68 225.75,-60.89 -73.98,-57.06 -167.37,-89.71 -261.2,-79.12 -75.73,4.41 -138.83,55.15 -184.13,112.36 -101.917,138.1 -211.183,270.45 -316.339,405.9 v 0" /><path
         id="path30"
         style="fill:#3773c2;fill-opacity:1;fill-rule:nonzero;stroke:none"
         d="m 6197.73,4332.77 c 52.2,53.53 126.59,77.65 198.66,89.12 132.97,18.54 267.96,2.66 398.26,-25.73 -90.12,-115.16 -181.79,-229.13 -271.02,-344.88 -46.46,-65.89 -98.83,-135.74 -178.13,-163.53 -108.06,-31.33 -226.29,0.88 -313.4,69.11 77.7,8.39 163.38,12.07 227.36,62.95 69,57.65 121.07,132.21 169.01,207.66 -62.79,-58.53 -124.27,-119.56 -197.36,-165.31 -66.04,-40.14 -144.27,-55.14 -220.79,-55.29 40.6,118.97 96.64,236.63 187.41,325.9 v 0" /><path
         id="path32"
         style="fill:#3773c2;fill-opacity:1;fill-rule:nonzero;stroke:none"
         d="m 1076.97,3413.59 c 305.61,104.72 631.07,188.69 956.09,146.79 39.7,-244.73 116.77,-488.72 266.48,-689.61 -154.86,79.28 -293.84,185.16 -430.47,291.93 117.66,-145.89 243.55,-288.99 399.29,-395.46 71.03,-50.59 158.69,-64.42 242.37,-79.27 52.8,-29.13 104.72,-60.01 160.01,-83.98 -153.98,-97.5 -341.93,-145.15 -523.56,-121.76 -170.45,30.29 -305.16,152.95 -413.99,280.3 -217.81,217.95 -438.11,433.26 -656.22,651.06 v 0" /><path
         id="path34"
         style="fill:#3773c2;fill-opacity:1;fill-rule:nonzero;stroke:none"
         d="m 5582.53,3299.18 c 65,42.94 132.95,87.8 211.63,98.68 118.1,19.12 238.23,-2.2 351.62,-35.88 140.6,-42.65 273.69,-106.48 401.22,-178.98 -174.69,-122.36 -351.04,-242.37 -525.61,-365.18 -94.15,-75.58 -203.41,-149.85 -329.29,-147.94 -158.98,10.3 -307.67,99.41 -398.85,228.99 106.33,-25.89 219.87,-49.71 327.82,-19.57 134.11,50.74 247.07,143.25 354.87,235.61 -122.95,-64.57 -248.26,-129.57 -384.15,-161.93 -103.38,-17.05 -211.62,-10 -310.74,24.86 83.08,121.62 181.62,234.87 301.48,321.34 v 0" /><path
         id="path36"
         style="fill:#3d3c3e;fill-opacity:1;fill-rule:nonzero;stroke:none"
         d="m 4042.15,2059.84 c 177.35,355.47 354.14,711.07 531.65,1066.39 -4.42,-449.59 12.5,-899.47 53.39,-1347.14 34.99,-366.06 84.26,-732.07 179.11,-1087.84 64.72,-231.918 144.28,-467.086 294.29,-659.1758 -672.98,-0.2969 -1345.96,-2.0703 -2019.09,-2.7812 211.93,220.613 361.2,496.199 455.32,785.754 129.86,400.333 141.48,832.563 66.19,1244.793 146.33,0.15 292.66,0.15 439.14,0 v 0" /><path
         id="path38"
         style="fill:#3d3c3e;fill-opacity:1;fill-rule:nonzero;stroke:none"
         d="m 6626.59,1349.89 c 0,58.82 -7.87,112.61 -23.67,161.38 -15.8,48.76 -38.4,90.42 -67.76,124.8 -29.41,34.43 -65.62,61.32 -108.71,80.69 -43.02,19.39 -91.07,29.05 -144.15,29.05 H 6114.47 V 949.676 h 167.83 c 54.5,0 103.32,10 146.34,30.121 43.02,20.058 79.24,48.053 108.65,83.913 29.41,35.8 51.67,78.17 66.75,126.93 15.03,48.77 22.55,101.85 22.55,159.25 z m -931.7,-766.05 v 1527.77 h 587.41 c 126.22,0 237.42,-20.09 333.52,-60.23 96.11,-40.18 176.47,-94.7 241.03,-163.55 64.56,-68.86 113.32,-149.56 146.35,-242.08 32.96,-92.53 49.47,-191.18 49.47,-295.86 0,-116.23 -18.29,-221.32 -54.86,-315.24 -36.63,-93.97 -88.65,-174.275 -156.05,-241.025 -67.4,-66.691 -148.47,-118.297 -243.16,-154.926 -94.62,-36.57 -200.08,-54.859 -316.3,-54.859 h -587.41" /><path
         id="path40"
         style="fill:#3d3c3e;fill-opacity:1;fill-rule:nonzero;stroke:none"
         d="m 7577.69,1345.57 c 0,-51.61 7.16,-101.49 21.48,-149.54 14.32,-48.05 35.86,-90.72 64.56,-128 28.7,-37.34 64.92,-67.46 108.71,-90.425 43.73,-22.902 95.69,-34.441 155.99,-34.441 60.24,0 112.55,11.836 157.05,35.566 44.45,23.67 80.72,54.44 108.65,92.49 28,37.99 48.76,81.43 62.44,130.19 13.61,48.77 20.41,98.24 20.41,148.48 0,51.66 -7.16,101.49 -21.48,149.54 -14.38,48.05 -36.27,90.36 -65.63,126.96 -29.41,36.58 -66.04,65.97 -109.77,88.22 -43.79,22.23 -95.04,33.37 -153.86,33.37 -60.24,0 -112.26,-11.51 -155.99,-34.43 -43.79,-22.97 -79.95,-53.48 -108.65,-91.46 -28.7,-38.04 -49.89,-81.06 -63.5,-129.11 -13.67,-48.11 -20.41,-97.17 -20.41,-147.41 z m 346.42,-774.629 c -116.23,0 -221.62,22.25 -316.31,66.692 -94.67,44.5 -175.75,102.91 -243.15,175.402 -67.46,72.434 -119.77,155.219 -157.06,248.545 -37.34,93.2 -55.98,189.31 -55.98,288.31 0,100.42 19.35,197.24 58.11,290.5 38.71,93.24 92.85,175.35 162.44,246.37 69.6,70.99 152.03,127.67 247.48,169.99 95.4,42.3 199.72,63.47 313.05,63.47 116.22,0 221.68,-22.26 316.3,-66.71 94.74,-44.48 175.76,-103.29 243.16,-176.45 67.46,-73.15 119.48,-156.37 156.05,-249.61 36.57,-93.22 54.86,-188.62 54.86,-286.14 0,-100.49 -19.41,-196.88 -58.11,-289.44 -38.71,-92.55 -92.5,-174.272 -161.38,-245.284 -68.88,-71.016 -150.96,-128.063 -246.36,-171.082 -95.45,-43.024 -199.78,-64.563 -313.1,-64.563" /><path
         id="path42"
         style="fill:#3d3c3e;fill-opacity:1;fill-rule:nonzero;stroke:none"
         d="M 10047.9,1745.81 H 9609 V 583.84 h -419.62 v 1161.97 h -441.11 v 365.8 h 1299.63 v -365.8" /><path
         id="path44"
         style="fill:#3773c2;fill-opacity:1;fill-rule:nonzero;stroke:none"
         d="m 10495.5,2111.61 299.1,-1000.56 294.8,1000.56 h 441.1 L 10968.9,583.84 h -348.6 l -568.1,1527.77 h 443.3" /><path
         id="path46"
         style="fill:#3773c2;fill-opacity:1;fill-rule:nonzero;stroke:none"
         d="m 11941.5,2111.61 299,-1000.56 294.9,1000.56 h 441.1 L 12414.9,583.84 h -348.6 l -568.1,1527.77 h 443.3" /><path
         id="path48"
         style="fill:#3773c2;fill-opacity:1;fill-rule:nonzero;stroke:none"
         d="m 14248.2,583.84 v 804.75 l -256.1,-565.91 h -223.8 l -256,565.91 V 583.84 h -419.7 v 1527.77 h 458.4 l 329.2,-718.7 331.4,718.7 h 456.2 V 583.84 h -419.6" /></g></g></svg>